<svg width="18" height="18" viewBox="0 0 18 18" fill="none" xmlns="http://www.w3.org/2000/svg">
<path d="M6.11719 14.207C6.11719 14.3008 6.05859 14.3477 5.94141 14.3477C5.80078 14.3711 5.73047 14.3242 5.73047 14.207C5.73047 14.1367 5.78906 14.1016 5.90625 14.1016C6.04688 14.0781 6.11719 14.1133 6.11719 14.207ZM5.16797 14.2422C5.02734 14.2188 4.96875 14.1602 4.99219 14.0664C5.03906 13.9727 5.12109 13.9492 5.23828 13.9961C5.35547 14.0195 5.40234 14.0781 5.37891 14.1719C5.35547 14.2656 5.28516 14.2891 5.16797 14.2422ZM6.57422 13.9961C6.69141 13.9961 6.75 14.0312 6.75 14.1016C6.77344 14.1719 6.72656 14.2305 6.60938 14.2773C6.49219 14.3008 6.42188 14.2656 6.39844 14.1719C6.39844 14.0781 6.45703 14.0195 6.57422 13.9961ZM8.89453 0.53125C10.4883 0.53125 11.9648 0.90625 13.3242 1.65625C14.6836 2.40625 15.75 3.4375 16.5234 4.75C17.3203 6.0625 17.7188 7.51562 17.7188 9.10938C17.7188 11.0547 17.168 12.8008 16.0664 14.3477C14.9883 15.8711 13.5703 16.9258 11.8125 17.5117C11.625 17.5586 11.4727 17.5352 11.3555 17.4414C11.2617 17.3477 11.2148 17.2305 11.2148 17.0898C11.2148 17.0664 11.2148 16.6914 11.2148 15.9648C11.2148 15.2148 11.2148 14.6055 11.2148 14.1367C11.2148 13.3867 11.0156 12.8477 10.6172 12.5195C11.1328 12.4492 11.5312 12.3906 11.8125 12.3438C12.0938 12.2969 12.4453 12.1914 12.8672 12.0273C13.2891 11.8633 13.6055 11.6523 13.8164 11.3945C14.0508 11.1367 14.25 10.7734 14.4141 10.3047C14.5781 9.83594 14.6602 9.27344 14.6602 8.61719C14.6602 8.17188 14.5898 7.80859 14.4492 7.52734C14.3086 7.24609 14.0742 6.92969 13.7461 6.57812C14.0273 5.85156 14.0039 5.05469 13.6758 4.1875C13.4414 4.11719 13.125 4.16406 12.7266 4.32812C12.3281 4.46875 11.9766 4.63281 11.6719 4.82031L11.25 5.13672C10.5234 4.92578 9.77344 4.82031 9 4.82031C8.25 4.82031 7.52344 4.92578 6.82031 5.13672C6.70312 5.04297 6.53906 4.9375 6.32812 4.82031C6.11719 4.67969 5.78906 4.52734 5.34375 4.36328C4.92188 4.17578 4.60547 4.11719 4.39453 4.1875C4.04297 5.05469 4.00781 5.85156 4.28906 6.57812C3.75 7.16406 3.48047 7.84375 3.48047 8.61719C3.48047 9.27344 3.5625 9.83594 3.72656 10.3047C3.89062 10.7734 4.07812 11.1367 4.28906 11.3945C4.5 11.6523 4.80469 11.8633 5.20312 12.0273C5.60156 12.1914 5.94141 12.3086 6.22266 12.3789C6.52734 12.4258 6.92578 12.4727 7.41797 12.5195C7.11328 12.8008 6.92578 13.1992 6.85547 13.7148C6.62109 13.8086 6.375 13.8789 6.11719 13.9258C5.88281 13.9727 5.57812 13.9258 5.20312 13.7852C4.82812 13.6445 4.52344 13.375 4.28906 12.9766C4.14844 12.7188 3.96094 12.5195 3.72656 12.3789C3.51562 12.2148 3.32812 12.1211 3.16406 12.0977L2.95312 12.0625C2.4375 12.0625 2.41406 12.2383 2.88281 12.5898C3.04688 12.6836 3.21094 12.8359 3.375 13.0469C3.53906 13.2578 3.65625 13.4453 3.72656 13.6094L3.86719 13.8906C3.96094 14.1719 4.125 14.4062 4.35938 14.5938C4.59375 14.7812 4.85156 14.8984 5.13281 14.9453C5.41406 14.9922 5.68359 15.0156 5.94141 15.0156C6.19922 15.0156 6.41016 15.0039 6.57422 14.9805L6.82031 14.9453C6.82031 15.2266 6.82031 15.6484 6.82031 16.2109C6.84375 16.7734 6.85547 17.0664 6.85547 17.0898C6.85547 17.2305 6.79688 17.3477 6.67969 17.4414C6.58594 17.5352 6.44531 17.5586 6.25781 17.5117C4.47656 16.9258 3.03516 15.8711 1.93359 14.3477C0.832031 12.8008 0.28125 11.0547 0.28125 9.10938C0.28125 6.67188 1.10156 4.63281 2.74219 2.99219C4.40625 1.35156 6.45703 0.53125 8.89453 0.53125ZM3.69141 12.6602C3.73828 12.6133 3.79688 12.625 3.86719 12.6953C3.9375 12.7656 3.94922 12.8242 3.90234 12.8711C3.85547 12.918 3.79688 12.9062 3.72656 12.8359C3.65625 12.7656 3.64453 12.707 3.69141 12.6602ZM3.30469 12.3789C3.35156 12.332 3.41016 12.3203 3.48047 12.3438C3.55078 12.3906 3.57422 12.4375 3.55078 12.4844C3.52734 12.5547 3.48047 12.5664 3.41016 12.5195C3.31641 12.4727 3.28125 12.4258 3.30469 12.3789ZM4.46484 13.6094C4.51172 13.5391 4.58203 13.5508 4.67578 13.6445C4.76953 13.7383 4.79297 13.8203 4.74609 13.8906C4.67578 13.9609 4.59375 13.9492 4.5 13.8555C4.40625 13.7617 4.39453 13.6797 4.46484 13.6094ZM4.04297 13.1172C4.11328 13.0469 4.18359 13.0703 4.25391 13.1875C4.32422 13.2812 4.32422 13.3516 4.25391 13.3984C4.18359 13.4453 4.11328 13.4219 4.04297 13.3281C3.99609 13.2109 3.99609 13.1406 4.04297 13.1172Z" fill="#0A0A23"/>
</svg>
