<svg width="19" height="16" viewBox="0 0 19 16" fill="none" xmlns="http://www.w3.org/2000/svg">
<path d="M16.6367 4.59375C16.6602 4.6875 16.6719 4.83984 16.6719 5.05078C16.6719 6.29297 16.4375 7.53516 15.9688 8.77734C15.5 9.99609 14.832 11.1211 13.9648 12.1523C13.1211 13.1602 12.0195 13.9805 10.6602 14.6133C9.30078 15.2461 7.80078 15.5625 6.16016 15.5625C4.09766 15.5625 2.21094 15.0117 0.5 13.9102C0.757812 13.9336 1.05078 13.9453 1.37891 13.9453C3.08984 13.9453 4.625 13.418 5.98438 12.3633C5.16406 12.3633 4.4375 12.1289 3.80469 11.6602C3.19531 11.168 2.77344 10.5586 2.53906 9.83203C2.77344 9.85547 2.99609 9.86719 3.20703 9.86719C3.53516 9.86719 3.86328 9.83203 4.19141 9.76172C3.62891 9.64453 3.125 9.41016 2.67969 9.05859C2.23438 8.70703 1.88281 8.28516 1.625 7.79297C1.36719 7.27734 1.23828 6.72656 1.23828 6.14062V6.07031C1.75391 6.375 2.30469 6.53906 2.89062 6.5625C1.78906 5.8125 1.23828 4.78125 1.23828 3.46875C1.23828 2.8125 1.41406 2.19141 1.76562 1.60547C2.67969 2.75391 3.79297 3.66797 5.10547 4.34766C6.44141 5.02734 7.85938 5.40234 9.35938 5.47266C9.3125 5.19141 9.28906 4.91016 9.28906 4.62891C9.28906 3.62109 9.64062 2.75391 10.3438 2.02734C11.0703 1.30078 11.9375 0.9375 12.9453 0.9375C14.0234 0.9375 14.9258 1.32422 15.6523 2.09766C16.4961 1.93359 17.2812 1.64062 18.0078 1.21875C17.7266 2.08594 17.1875 2.76562 16.3906 3.25781C17.0938 3.16406 17.7969 2.96484 18.5 2.66016C17.9844 3.41016 17.3633 4.05469 16.6367 4.59375Z" fill="#0A0A23"/>
</svg>
