<svg width="18" height="18" viewBox="0 0 18 18" fill="none" xmlns="http://www.w3.org/2000/svg">
<path d="M15.2666 12.7857C15.2666 13.0368 15.1662 13.2779 14.9854 13.4587L13.5088 14.9252C13.328 15.096 13.0769 15.1864 12.8258 15.1864C12.5746 15.1864 12.3235 15.096 12.1427 14.9152L10.0735 12.8359C9.89272 12.6551 9.79227 12.404 9.79227 12.1529C9.79227 11.8516 9.91281 11.6205 10.1237 11.4196C10.4552 11.7511 10.7365 12.1429 11.2487 12.1429C11.7811 12.1429 12.213 11.7109 12.213 11.1786C12.213 10.6663 11.8213 10.385 11.4898 10.0536C11.6907 9.84263 11.9217 9.73214 12.213 9.73214C12.4641 9.73214 12.7153 9.83259 12.8961 10.0134L14.9854 12.1027C15.1662 12.2835 15.2666 12.5246 15.2666 12.7857ZM8.20522 5.70424C8.20522 6.00558 8.08468 6.23661 7.87374 6.4375C7.54227 6.10603 7.26102 5.71429 6.74874 5.71429C6.21638 5.71429 5.78446 6.1462 5.78446 6.67857C5.78446 7.19085 6.1762 7.4721 6.50767 7.80357C6.30678 8.01451 6.07575 8.11496 5.78446 8.11496C5.53334 8.11496 5.28223 8.02455 5.10142 7.84375L3.01214 5.75446C2.83133 5.57366 2.73089 5.33259 2.73089 5.07143C2.73089 4.82031 2.83133 4.57924 3.01214 4.39844L4.4887 2.93192C4.6695 2.76116 4.92062 2.66071 5.17174 2.66071C5.42285 2.66071 5.67397 2.76116 5.85477 2.94196L7.92397 5.0212C8.10477 5.20201 8.20522 5.45312 8.20522 5.70424ZM17.1952 12.7857C17.1952 12.0123 16.9039 11.2891 16.3514 10.7366L14.2621 8.64732C13.7197 8.10491 12.9764 7.80357 12.213 7.80357C11.4195 7.80357 10.6762 8.125 10.1237 8.6875L9.23982 7.80357C9.80232 7.25112 10.1237 6.49777 10.1237 5.70424C10.1237 4.94085 9.83245 4.20759 9.29004 3.66518L7.22084 1.58594C6.67843 1.03348 5.94517 0.732142 5.17174 0.732142C4.40834 0.732142 3.67508 1.02344 3.13267 1.56585L1.65611 3.03237C1.1137 3.56473 0.802316 4.30804 0.802316 5.07143C0.802316 5.84487 1.09361 6.56808 1.64607 7.12054L3.73535 9.20982C4.27776 9.75223 5.02107 10.0536 5.78446 10.0536C6.57799 10.0536 7.32129 9.73214 7.87374 9.16964L8.75767 10.0536C8.19517 10.606 7.87374 11.3594 7.87374 12.1529C7.87374 12.9163 8.16504 13.6496 8.70745 14.192L10.7766 16.2712C11.3191 16.8237 12.0523 17.125 12.8258 17.125C13.5891 17.125 14.3224 16.8337 14.8648 16.2913L16.3414 14.8248C16.8838 14.2924 17.1952 13.5491 17.1952 12.7857Z" fill="#0A0A23"/>
</svg>
